<svg xmlns="http://www.w3.org/2000/svg" xmlns:xlink="http://www.w3.org/1999/xlink" contentStyleType="text/css" data-diagram-type="SEQUENCE" height="1246px" preserveAspectRatio="none" style="width:1260px;height:1246px;background:#FFFFFF;" version="1.1" viewBox="0 0 1260 1246" width="1260px" zoomAndPan="magnify"><title>Authentification vs. Autorisation</title><defs/><g><text fill="#000000" font-family="Verdana" font-size="44" font-weight="bold" lengthAdjust="spacing" textLength="803.5586" x="235.8413" y="74.2363">Authentification vs. Autorisation</text><rect fill="#FFFFFF" height="575.8623" style="stroke:#000000;stroke-width:2;" width="1217.2412" x="30" y="472.2998"/><rect fill="#FFFFFF" height="185.5332" style="stroke:#000000;stroke-width:2;" width="997.2695" x="50" y="758.293"/><rect fill="#FFFFFF" height="90.3359" style="stroke:none;stroke-width:2;" width="997.2695" x="50" y="853.4902"/><rect fill="#FFFFFF" height="90.3359" style="stroke:none;stroke-width:2;" width="1217.2412" x="30" y="957.8262"/><g><title>Utilisateur</title><rect fill="#000000" fill-opacity="0.00000" height="820.6582" width="16" x="139.6816" y="261.5039"/><line style="stroke:#000000;stroke-width:2;" x1="146" x2="146" y1="261.5039" y2="1082.1621"/></g><g><title>..Application..</title><rect fill="#000000" fill-opacity="0.00000" height="820.6582" width="16" x="839.6641" y="261.5039"/><line style="stroke:#000000;stroke-width:2;" x1="846.0586" x2="846.0586" y1="261.5039" y2="1082.1621"/></g><g class="participant participant-head" data-participant="User"><text fill="#000000" font-family="Verdana" font-size="28" lengthAdjust="spacing" textLength="143.3633" x="70" y="255.625">Utilisateur</text><ellipse cx="147.6816" cy="123.4746" fill="#FFFFFF" rx="16" ry="16" style="stroke:#000000;stroke-width:2;"/><path d="M147.6816,139.4746 L147.6816,193.4746 M121.6816,155.4746 L173.6816,155.4746 M147.6816,193.4746 L121.6816,223.4746 M147.6816,193.4746 L173.6816,223.4746" fill="none" style="stroke:#000000;stroke-width:2;"/></g><g class="participant participant-tail" data-participant="User"><text fill="#000000" font-family="Verdana" font-size="28" lengthAdjust="spacing" textLength="143.3633" x="70" y="1108.3125">Utilisateur</text><ellipse cx="147.6816" cy="1132.1914" fill="#FFFFFF" rx="16" ry="16" style="stroke:#000000;stroke-width:2;"/><path d="M147.6816,1148.1914 L147.6816,1202.1914 M121.6816,1164.1914 L173.6816,1164.1914 M147.6816,1202.1914 L121.6816,1232.1914 M147.6816,1202.1914 L173.6816,1232.1914" fill="none" style="stroke:#000000;stroke-width:2;"/></g><g class="participant participant-head" data-participant="Sec"><rect fill="#FFFFFF" height="96.0586" rx="5" ry="5" style="stroke:#000000;stroke-width:2;" width="319.2109" x="688.0586" y="163.4453"/><text fill="#000000" font-family="Verdana" font-size="28" font-style="italic" lengthAdjust="spacing" textLength="190.2988" x="752.5146" y="205.5957">&#171;Application&#187;</text><text fill="#000000" font-family="Verdana" font-size="28" lengthAdjust="spacing" textLength="291.2109" x="702.0586" y="239.625">Syst&#232;me de S&#233;curit&#233;</text></g><g class="participant participant-tail" data-participant="Sec"><rect fill="#FFFFFF" height="96.0586" rx="5" ry="5" style="stroke:#000000;stroke-width:2;" width="319.2109" x="688.0586" y="1080.1621"/><text fill="#000000" font-family="Verdana" font-size="28" font-style="italic" lengthAdjust="spacing" textLength="190.2988" x="752.5146" y="1122.3125">&#171;Application&#187;</text><text fill="#000000" font-family="Verdana" font-size="28" lengthAdjust="spacing" textLength="291.2109" x="702.0586" y="1156.3418">Syst&#232;me de S&#233;curit&#233;</text></g><g class="message" data-participant-1="User" data-participant-2="Sec"><polygon fill="#000000" points="823.6641,317.1025,843.6641,325.1025,823.6641,333.1025,831.6641,325.1025" style="stroke:#000000;stroke-width:2;"/><line style="stroke:#000000;stroke-width:2;" x1="147.6816" x2="835.6641" y1="325.1025" y2="325.1025"/><text fill="#000000" font-family="Verdana" font-size="26" font-weight="bold" lengthAdjust="spacing" textLength="18.4844" x="161.6816" y="315.6436">1</text><text fill="#000000" font-family="Verdana" font-size="26" lengthAdjust="spacing" textLength="508.46" x="188.166" y="315.6436">"Je suis Bob, voici mon mot de passe."</text></g><g class="message" data-participant-1="Sec" data-participant-2="Sec"><line style="stroke:#000000;stroke-width:2;" x1="847.6641" x2="931.6641" y1="416.2998" y2="416.2998"/><line style="stroke:#000000;stroke-width:2;" x1="931.6641" x2="931.6641" y1="416.2998" y2="442.2998"/><line style="stroke:#000000;stroke-width:2;" x1="849.6641" x2="931.6641" y1="442.2998" y2="442.2998"/><polygon fill="#000000" points="869.6641,434.2998,849.6641,442.2998,869.6641,450.2998,861.6641,442.2998" style="stroke:#000000;stroke-width:2;"/><text fill="#000000" font-family="Verdana" font-size="26" font-weight="bold" lengthAdjust="spacing" textLength="18.4844" x="861.6641" y="391.0415">2</text><text fill="#000000" font-family="Verdana" font-size="26" font-weight="bold" lengthAdjust="spacing" textLength="271.9971" x="888.1484" y="375.2422">1. Authentification</text><text fill="#000000" font-family="Verdana" font-size="26" lengthAdjust="spacing" textLength="228.5156" x="888.1484" y="406.8408">(V&#233;rifie l'identit&#233;)</text></g><path d="M30,472.2998 L158.0986,472.2998 L158.0986,487.8984 L138.0986,507.8984 L30,507.8984 L30,472.2998" fill="#FFFFFF" style="stroke:#000000;stroke-width:2;"/><rect fill="none" height="575.8623" style="stroke:#000000;stroke-width:2;" width="1217.2412" x="30" y="472.2998"/><text fill="#000000" font-family="Verdana" font-size="26" font-weight="bold" lengthAdjust="spacing" textLength="38.0986" x="60" y="500.4395">alt</text><text fill="#000000" font-family="Verdana" font-size="22" font-weight="bold" lengthAdjust="spacing" textLength="207.8076" x="188.0986" y="498.418">[Identit&#233; Valide]</text><g class="message" data-participant-1="Sec" data-participant-2="User"><polygon fill="#000000" points="169.6816,543.4971,149.6816,551.4971,169.6816,559.4971,161.6816,551.4971" style="stroke:#000000;stroke-width:2;"/><line style="stroke:#000000;stroke-width:2;stroke-dasharray:4,4;" x1="157.6816" x2="845.6641" y1="551.4971" y2="551.4971"/><text fill="#000000" font-family="Verdana" font-size="26" font-weight="bold" lengthAdjust="spacing" textLength="18.4844" x="181.6816" y="542.0381">3</text><text fill="#000000" font-family="Verdana" font-size="26" lengthAdjust="spacing" textLength="228.4395" x="208.166" y="542.0381">"Bienvenue Bob."</text></g><g class="message" data-participant-1="User" data-participant-2="Sec"><polygon fill="#000000" points="823.6641,603.0957,843.6641,611.0957,823.6641,619.0957,831.6641,611.0957" style="stroke:#000000;stroke-width:2;"/><line style="stroke:#000000;stroke-width:2;" x1="147.6816" x2="835.6641" y1="611.0957" y2="611.0957"/><text fill="#000000" font-family="Verdana" font-size="26" font-weight="bold" lengthAdjust="spacing" textLength="18.4844" x="161.6816" y="601.6367">4</text><text fill="#000000" font-family="Verdana" font-size="26" lengthAdjust="spacing" textLength="625.498" x="188.166" y="601.6367">"Je veux acc&#233;der au panneau d'administration."</text></g><g class="message" data-participant-1="Sec" data-participant-2="Sec"><line style="stroke:#000000;stroke-width:2;" x1="847.6641" x2="931.6641" y1="702.293" y2="702.293"/><line style="stroke:#000000;stroke-width:2;" x1="931.6641" x2="931.6641" y1="702.293" y2="728.293"/><line style="stroke:#000000;stroke-width:2;" x1="849.6641" x2="931.6641" y1="728.293" y2="728.293"/><polygon fill="#000000" points="869.6641,720.293,849.6641,728.293,869.6641,736.293,861.6641,728.293" style="stroke:#000000;stroke-width:2;"/><text fill="#000000" font-family="Verdana" font-size="26" font-weight="bold" lengthAdjust="spacing" textLength="18.4844" x="861.6641" y="677.0347">5</text><text fill="#000000" font-family="Verdana" font-size="26" font-weight="bold" lengthAdjust="spacing" textLength="216.874" x="888.1484" y="661.2354">2. Autorisation</text><text fill="#000000" font-family="Verdana" font-size="26" lengthAdjust="spacing" textLength="335.0928" x="888.1484" y="692.834">(V&#233;rifie les droits de Bob)</text></g><path d="M50,758.293 L178.0986,758.293 L178.0986,773.8916 L158.0986,793.8916 L50,793.8916 L50,758.293" fill="#FFFFFF" style="stroke:#000000;stroke-width:2;"/><rect fill="none" height="185.5332" style="stroke:#000000;stroke-width:2;" width="997.2695" x="50" y="758.293"/><text fill="#000000" font-family="Verdana" font-size="26" font-weight="bold" lengthAdjust="spacing" textLength="38.0986" x="80" y="786.4326">alt</text><text fill="#000000" font-family="Verdana" font-size="22" font-weight="bold" lengthAdjust="spacing" textLength="202.8125" x="208.0986" y="784.4111">[Bob est Admin]</text><g class="message" data-participant-1="Sec" data-participant-2="User"><polygon fill="#000000" points="169.6816,829.4902,149.6816,837.4902,169.6816,845.4902,161.6816,837.4902" style="stroke:#000000;stroke-width:2;"/><line style="stroke:#000000;stroke-width:2;stroke-dasharray:4,4;" x1="157.6816" x2="845.6641" y1="837.4902" y2="837.4902"/><text fill="#000000" font-family="Verdana" font-size="26" font-weight="bold" lengthAdjust="spacing" textLength="18.4844" x="181.6816" y="828.0313">6</text><text fill="#000000" font-family="Verdana" font-size="26" lengthAdjust="spacing" textLength="221.7236" x="208.166" y="828.0313">"Acc&#232;s autoris&#233;."</text></g><line style="stroke:#000000;stroke-width:2;stroke-dasharray:4,4;" x1="50" x2="1047.2695" y1="855.4902" y2="855.4902"/><text fill="#000000" font-family="Verdana" font-size="22" font-weight="bold" lengthAdjust="spacing" textLength="276.4395" x="60" y="877.6084">[Bob n'est pas Admin]</text><g class="message" data-participant-1="Sec" data-participant-2="User"><polygon fill="#000000" points="169.6816,919.8262,149.6816,927.8262,169.6816,935.8262,161.6816,927.8262" style="stroke:#000000;stroke-width:2;"/><line style="stroke:#000000;stroke-width:2;stroke-dasharray:4,4;" x1="157.6816" x2="845.6641" y1="927.8262" y2="927.8262"/><text fill="#000000" font-family="Verdana" font-size="26" font-weight="bold" lengthAdjust="spacing" textLength="18.4844" x="181.6816" y="918.3672">7</text><text fill="#000000" font-family="Verdana" font-size="26" lengthAdjust="spacing" textLength="197.5771" x="208.166" y="918.3672">"Acc&#232;s refus&#233;."</text></g><line style="stroke:#000000;stroke-width:2;stroke-dasharray:4,4;" x1="30" x2="1247.2412" y1="959.8262" y2="959.8262"/><text fill="#000000" font-family="Verdana" font-size="22" font-weight="bold" lengthAdjust="spacing" textLength="232.9873" x="40" y="981.9443">[Identit&#233; Invalide]</text><g class="message" data-participant-1="Sec" data-participant-2="User"><polygon fill="#000000" points="169.6816,1024.1621,149.6816,1032.1621,169.6816,1040.1621,161.6816,1032.1621" style="stroke:#000000;stroke-width:2;"/><line style="stroke:#000000;stroke-width:2;stroke-dasharray:4,4;" x1="157.6816" x2="845.6641" y1="1032.1621" y2="1032.1621"/><text fill="#000000" font-family="Verdana" font-size="26" font-weight="bold" lengthAdjust="spacing" textLength="18.4844" x="181.6816" y="1022.7031">8</text><text fill="#000000" font-family="Verdana" font-size="26" lengthAdjust="spacing" textLength="318.9951" x="208.166" y="1022.7031">"Identifiants incorrects."</text></g><!--SRC=[ZP9BJiD0343tSmgJJMa4bM29KALsLxPLks8pdRZ2KZA9nfu8RjIS8nV3Cos_5YIoYVp9yxELAtd11g6hBNbZexG-DZiCHaXgX4NKiXVQaxD2hOUUPodP1kASCCOwZQ3O2DKfXp4KO1ash93E1Y57dVK2nVgDPJpeh0fXFGuk1f9noCrhTF3ukEYw-ZHdFZSc4U1sdeiFK3mXS2I6PRkxWRvLB3GgrBIIW9rbnbbXKlFdDsLvDxjOeIoV_VLs789c4Ee9LQcg9bFTfHPOVSImjRKM3UYJiShDJYgp9FGz-eX9HyUcdalV7kChMEV6eTAIZMhfFUgxcjYg8Kyi8JkT26VozpzFVIQE35LeIJYjhnRJZ4WRQ0380eiq8sT_Ms6XNWS6Uvmm3YS7h3dZm4yIG-_wFqx0VVn6yPN9fAzhhdp_zpsFRNlI7uM1l6j3G2Uij4Hw1m00]--></g></svg>